
nColumns=19
nRows=44
DataType=double
version=3
OpenSimVersion=4.4-2022-10-11-798caa840
endheader
time	ground_force_calcn_r_vx	ground_force_calcn_r_vy	ground_force_calcn_r_vz	ground_force_calcn_r_px	ground_force_calcn_r_py	ground_force_calcn_r_pz	ground_force_calcn_r_mx	ground_force_calcn_r_my	ground_force_calcn_r_mz	ground_force_calcn_l_vx	ground_force_calcn_l_vy	ground_force_calcn_l_vz	ground_force_calcn_l_px	ground_force_calcn_l_py	ground_force_calcn_l_pz	ground_force_calcn_l_mx	ground_force_calcn_l_my	ground_force_calcn_l_mz
1.45	-46.5192	65.85120000000001	-19.0417	-0.162042	0	-0.397537	-0.240548	0.340512	-0.0984632	-238.142	331.545	30.8901	-0.148962	0	-0.818928	-0.0431607	0.060089	0.00559849
1.46	-256.76	391.154	-92.4251	-0.169594	0	-0.39477	-0.656272	0.999779	-0.236236	-349.585	620.696	53.3549	-0.158704	0	-0.822576	-0.0750649	0.13328	0.0114567
1.47	-291.656	556.905	-128.485	-0.181146	0	-0.398505	-0.921378	1.75933	-0.4059	-173.863	593.245	105.375	-0.181592	0	-0.828669	0.69458	-2.37001	-0.420973
1.48	-155.378	766.699	-117.497	-0.237616	0	-0.416443	0.345281	-1.70376	0.261102	-105.873	849.3579999999999	153.903	-0.237046	0	-0.8235170000000001	0.178689	-1.43352	-0.259753
1.49	-37.3509	1288.91	-43.9301	-0.280552	0	-0.437363	0.190993	-6.59082	0.224636	22.5965	1221.8	135.341	-0.275734	0	-0.8136330000000001	0.0494672	2.67472	0.296283
1.5	-31.7394	1187.8	-4.30889	-0.284222	0	-0.442552	0.202635	-7.58331	0.0275094	-42.5275	1053.54	102.156	-0.270063	0	-0.811446	-0.229978	5.69731	0.552434
1.51	-200.53	824.205	-54.714	-0.259557	0	-0.435772	1.43566	-5.90074	0.391715	-219.271	746.246	88.9084	-0.233339	0	-0.814981	-1.47483	5.01931	0.598006
1.52	-258.112	600.183	-71.5038	-0.229822	0	-0.428331	1.68727	-3.92339	0.467419	-234.388	559.55	79.9051	-0.201097	0	-0.817294	-1.494	3.56659	0.509317
1.53	-208.833	567.543	-63.0265	-0.223865	0	-0.428586	1.34208	-3.64734	0.405042	-175.361	520.712	78.124	-0.194562	0	-0.816474	-1.14651	3.40442	0.510775
1.54	-156.831	631.158	-61.6946	-0.230793	0	-0.431925	0.964039	-3.87973	0.379236	-147.169	554.47	84.7336	-0.196794	0	-0.815302	-0.957784	3.60852	0.55145
1.55	-128.301	713.571	-62.4942	-0.236449	0	-0.435165	0.77435	-4.3067	0.377179	-146.947	605.751	95.0742	-0.198118	0	-0.814466	-0.89661	3.69603	0.580102
1.56	-96.04900000000001	801.513	-72.3844	-0.242088	0	-0.437627	0.545701	-4.55378	0.411251	-126.772	661.9109999999999	107.114	-0.202295	0	-0.813438	-0.741082	3.86938	0.626167
1.57	-59.7556	846.903	-81.1782	-0.244901	0	-0.438829	0.329836	-4.67469	0.448083	-82.3728	727.5119999999999	111.534	-0.210271	0	-0.8114170000000001	-0.542772	4.79373	0.734919
1.58	-45.4612	839.215	-86.7895	-0.242058	0	-0.438596	0.254715	-4.70205	0.486274	-50.9235	770.6609999999999	112.203	-0.214146	0	-0.809835	-0.373634	5.65445	0.823248
1.59	-54.5278	808.717	-92.8989	-0.234151	0	-0.437169	0.300307	-4.45393	0.511632	-49.9377	753.013	113.185	-0.209144	0	-0.8096139999999999	-0.373446	5.6312	0.846421
1.6	-68.19880000000001	776.131	-97.64319999999999	-0.223926	0	-0.435425	0.344513	-3.92069	0.493253	-58.7521	707.591	113.201	-0.199844	0	-0.809964	-0.420609	5.06567	0.810408
1.61	-70.2565	757.807	-97.60420000000001	-0.215134	0	-0.434151	0.340333	-3.67092	0.472809	-66.4999	673.28	112.385	-0.191547	0	-0.810098	-0.443887	4.49415	0.75017
1.62	-64.5433	757.322	-95.4734	-0.208931	0	-0.433553	0.322693	-3.78634	0.477332	-76.422	650.922	112.596	-0.184605	0	-0.810128	-0.4711	4.01258	0.694095
1.63	-58.4821	763.506	-98.696	-0.203928	0	-0.432877	0.280864	-3.66679	0.473994	-83.0979	637.6180000000001	113.542	-0.179305	0	-0.810065	-0.477965	3.66747	0.653073
1.64	-51.9784	766.5	-108.244	-0.199564	0	-0.43187	0.216141	-3.18733	0.450111	-80.6908	632.074	115.509	-0.175943	0	-0.809872	-0.4324	3.38711	0.61898
1.65	-46.853	761.718	-117.186	-0.195923	0	-0.430889	0.180508	-2.93463	0.451477	-73.2821	634.914	119.438	-0.174284	0	-0.809731	-0.364081	3.15439	0.593396
1.66	-46.6545	750.782	-121.096	-0.192691	0	-0.430148	0.207132	-3.33325	0.5376300000000001	-66.7638	644.98	124.431	-0.173705	0	-0.809715	-0.313726	3.03079	0.584708
1.67	-50.6157	734.722	-123.521	-0.189474	0	-0.429626	0.267934	-3.88925	0.653856	-61.2313	655.069	128.894	-0.173429	0	-0.809592	-0.286389	3.06387	0.602857
1.68	-57.0075	717.289	-127.64	-0.18661	0	-0.429198	0.340107	-4.27935	0.7615	-57.3497	658.644	132.524	-0.173067	0	-0.809552	-0.274594	3.15363	0.634532
1.69	-62.7832	704.813	-129.147	-0.185145	0	-0.429187	0.444592	-4.99105	0.914537	-57.6285	654.646	135.939	-0.17256	0	-0.809596	-0.281905	3.20238	0.664982
1.7	-64.1698	697.712	-126.078	-0.185256	0	-0.429775	0.557082	-6.0571	1.09453	-60.9091	644.942	139.069	-0.172016	0	-0.809683	-0.303106	3.20947	0.69206
1.71	-63.0881	694.601	-123.136	-0.185817	0	-0.430525	0.626987	-6.90315	1.22376	-64.27370000000001	632.807	142.069	-0.171429	0	-0.809681	-0.320327	3.15378	0.708046
1.72	-62.3532	694.707	-122.286	-0.185952	0	-0.431023	0.654614	-7.29337	1.28381	-66.626	621.905	145.22	-0.170911	0	-0.809541	-0.324381	3.02786	0.7070340000000001
1.73	-60.5376	698.205	-122.465	-0.185627	0	-0.431053	0.639275	-7.37301	1.29322	-67.8913	615.726	148.241	-0.170704	0	-0.809393	-0.326127	2.95774	0.712098
1.74	-58.7316	705.192	-124.061	-0.184528	0	-0.430635	0.596342	-7.1603	1.25967	-67.9789	615.816	150.455	-0.170579	0	-0.8093360000000001	-0.332332	3.01057	0.735538
1.75	-58.8246	711.4109999999999	-126.717	-0.182551	0	-0.430061	0.553931	-6.69911	1.19325	-66.4196	618.816	151.889	-0.170373	0	-0.80933	-0.331766	3.09098	0.758683
1.76	-60.1717	714.572	-127.428	-0.180438	0	-0.429596	0.5287539999999999	-6.27925	1.11976	-63.3346	620.9160000000001	153.049	-0.170277	0	-0.8092819999999999	-0.317637	3.11403	0.767574
1.77	-61.1729	716.84	-126.133	-0.178741	0	-0.429203	0.512944	-6.01081	1.05764	-60.4104	621.659	154.509	-0.170392	0	-0.809134	-0.297465	3.06109	0.76081
1.78	-61.0275	718.439	-126.378	-0.177276	0	-0.428657	0.470759	-5.54196	0.974868	-57.3388	620.759	155.922	-0.170609	0	-0.808926	-0.276424	2.99261	0.751684
1.79	-58.9816	718.417	-129.365	-0.175776	0	-0.427821	0.38853	-4.73243	0.852164	-52.3364	618.16	156.405	-0.170924	0	-0.808631	-0.259097	3.06026	0.774299
1.8	-56.4802	716.603	-133.244	-0.174222	0	-0.426813	0.300224	-3.80915	0.708267	-45.5182	615.136	155.726	-0.171627	0	-0.808268	-0.247312	3.3422	0.846102
1.81	-55.2457	713.088	-136.365	-0.172685	0	-0.425844	0.233279	-3.01107	0.575813	-38.0706	613.362	153.922	-0.172517	0	-0.807958	-0.229834	3.7029	0.929233
1.82	-53.7683	707.85	-137.92	-0.171327	0	-0.424975	0.184315	-2.42647	0.472781	-31.1654	612.112	151.524	-0.173141	0	-0.807756	-0.206971	4.06507	1.00628
1.83	-52.8655	704.205	-138.522	-0.170186	0	-0.424024	0.151695	-2.02068	0.397483	-28.2562	611.471	148.817	-0.173127	0	-0.807628	-0.201456	4.35956	1.06101
1.84	-53.8423	704.182	-138.126	-0.169146	0	-0.423074	0.136967	-1.79133	0.35137	-29.1941	612.754	145.97	-0.172564	0	-0.807734	-0.216062	4.53492	1.08031
1.85	-57.172	706.535	-136.542	-0.168032	0	-0.422301	0.139925	-1.7292	0.334178	-34.0213	618.264	143.341	-0.171873	0	-0.808203	-0.258568	4.69893	1.08942
1.86	-63.2618	709.532	-133.411	-0.166821	0	-0.421547	0.157884	-1.7708	0.332958	-42.8451	626.944	139.733	-0.170928	0	-0.8088070000000001	-0.324897	4.75415	1.05961
1.87	-70.7032	710.035	-128.146	-0.16549	0	-0.420921	0.190434	-1.91243	0.345154	-53.6298	634.378	132.416	-0.16937	0	-0.80938	-0.404883	4.78928	0.999685
1.88	-79.6224	706.013	-120.32	-0.164077	0	-0.420401	0.244962	-2.17208	0.37017	-65.1797	638.035	120.152	-0.167244	0	-0.809835	-0.503267	4.92641	0.927723
